<svg xmlns="http://www.w3.org/2000/svg" width="100%" height="100%" viewBox="0 0 500 500" stroke-linejoin="round"><style>.a{fill:#DF4A40;}</style><rect width="500" height="500" fill="none"/><path d="M362.2 138.8l-20.6 288.7 -184.8 0 -20.6-286.7 6-0.4 20.2 281.2 173.6 0 20.2-283.1 6 0.4Z" class="a"/><path d="M290.8 112.3l86 0 0 45.8 -6 0 0-39.8 -86 0 0-27.8 -71.2 0 0 27.8 -86 0 0 39.8 -6 0 0-45.8 86 0 0-27.8 83.2 0 0 27.8Z" class="a"/><path d="M221.2 372.2l-6 0.4 -12.9-177.2 6-0.4 12.9 177.2Z" class="a"/><rect x="247.2" y="195.2" width="6" height="177.2" class="a"/><path d="M298 195.5l-12.9 177.2 -6-0.4 12.9-177.2 6 0.4Z" class="a"/></svg>
