<svg xmlns="http://www.w3.org/2000/svg" width="100%" height="100%" viewBox="0 0 500 500" stroke-linejoin="round"><style>.a{fill:#00A6DE;}</style><rect width="500" height="500" fill="none"/><rect x="160.3" y="326.4" width="179.4" height="6" class="a"/><rect x="160.3" y="294.5" width="179.4" height="6" class="a"/><path d="M117.5 370.1l0-123.1 6 0 0 117.1 252.4 0 0-117.1 6 0 0 123.1c-88.1 0-176.3 0-264.4 0Z" class="a"/><path d="M252.3 185.2l-6 0 0-91.7 6 0c0 30.6 0 61.1 0 91.7Z" class="a"/><path d="M249.7 216.8l52.5-58.2c1.4 1.4 2.9 2.7 4.3 4.1l-52.6 58.4 0.1 0.1 -2 2.1 -1.9 2.2 -0.1-0.1 -0.1 0.1 -2-2.1 -2.1-2 0.1-0.1 -56.8-58.4 4.1-4.2 56.6 58.2Z" class="a"/></svg>
