<svg xmlns="http://www.w3.org/2000/svg" width="100%" height="100%" viewBox="0 0 500 500" stroke-linejoin="round"><style>.a{fill:#EDB747;}</style><rect width="500" height="500" fill="none"/><path d="M250.6 72.7c3.3 0 6.5 0.1 9.8 0.3 6.2 0.4 12.4 1 18.5 2 7.5 1.2 14.9 2.9 22.2 5 7.7 2.3 15.2 5.1 22.5 8.3 11.1 5 21.8 11.1 31.7 18.3 9.1 6.6 17.6 14 25.3 22.2 8 8.4 15.1 17.6 21.3 27.4 5.5 8.8 10.3 18.1 14.2 27.7 3.9 9.6 6.9 19.6 9.1 29.7 2 9.3 3.1 18.8 3.6 28.3 0.5 10.2 0 20.4-1.3 30.6 -1.1 8.6-2.8 17.1-5.2 25.4 -3.9 13.9-9.6 27.3-16.8 39.8 -5.5 9.6-11.9 18.6-19.1 27 -7.4 8.7-15.7 16.6-24.6 23.7 -8.1 6.5-16.8 12.2-25.9 17.2 -7.9 4.3-16.2 8-24.7 11.1 -10 3.6-20.4 6.3-30.9 8.1 -9.9 1.7-19.9 2.5-30 2.5 -10.4 0-20.8-0.9-31.1-2.7 -10.2-1.8-20.1-4.4-29.8-7.9 -9-3.2-17.8-7.2-26.1-11.9 -8.8-4.9-17.1-10.5-24.9-16.7 -8.3-6.7-16.1-14.1-23.1-22.1 -7.5-8.6-14.2-17.9-19.9-27.8 -7.3-12.6-13.1-26.2-17.1-40.2 -2.3-8-3.9-16.1-5.1-24.3 -1.4-10.5-1.9-21.1-1.4-31.7 0.4-9.5 1.6-19 3.6-28.3 2.1-10.2 5.2-20.1 9.1-29.7 4.1-10.1 9.2-19.9 15.1-29.1 6-9.3 12.8-18 20.4-26.1 8-8.4 16.7-16.1 26.1-22.8 9.6-6.9 20-12.8 30.8-17.7 7.1-3.2 14.5-5.9 22-8.2 7.3-2.2 14.7-3.9 22.1-5.1 6.3-1 12.7-1.7 19.1-2.1 3.2-0.2 6.5-0.3 9.8-0.3 0.4 0 0.8 0 1.2 0Zm-1.1 6c-3.1 0-6.3 0.1-9.4 0.3 -6.2 0.4-12.3 1-18.4 2 -7.2 1.2-14.4 2.8-21.4 4.9 -7.2 2.2-14.3 4.8-21.2 7.9 -10.4 4.7-20.4 10.4-29.7 17.1 -9.1 6.5-17.6 13.9-25.3 22 -7.3 7.8-13.9 16.2-19.7 25.2 -5.7 8.9-10.6 18.3-14.6 28.1 -3.6 9-6.5 18.2-8.5 27.7 -2 9.1-3.2 18.5-3.6 27.8 -0.5 10.4-0.1 20.8 1.3 31.1 1 7.8 2.6 15.4 4.7 23 3.8 13.4 9.2 26.4 16.1 38.5 5.3 9.3 11.5 18.1 18.4 26.2 7.1 8.4 15.1 16.1 23.7 23 7.6 6 15.6 11.5 24.1 16.2 8.1 4.5 16.6 8.3 25.3 11.5 9.4 3.4 19 5.9 28.8 7.6 9.9 1.7 20 2.6 30 2.6 9.7 0 19.4-0.8 29-2.4 10.2-1.7 20.2-4.3 29.9-7.8 8.2-3 16.2-6.5 23.9-10.7 8.8-4.8 17.2-10.3 25.1-16.6 9.2-7.3 17.6-15.5 25.1-24.5 6.6-7.9 12.6-16.5 17.7-25.4 6.8-12 12.1-24.8 15.8-38 2.2-7.9 3.8-15.9 4.9-24 1.3-10 1.7-20 1.2-30.1 -0.4-9-1.6-18-3.4-26.8 -2.1-9.8-5-19.4-8.8-28.7 -3.8-9.3-8.4-18.3-13.7-26.8 -6-9.5-12.9-18.4-20.5-26.5 -7.4-7.9-15.6-15.1-24.4-21.4 -9.6-6.9-19.8-12.9-30.6-17.7 -7.1-3.2-14.3-5.9-21.7-8.1 -7-2.1-14.2-3.7-21.4-4.9 -5.9-1-11.9-1.6-17.9-1.9 -3.1-0.2-6.3-0.3-9.4-0.3 -0.4 0-0.7 0-1.1 0Z" class="a"/><path d="M249.1 253l-72.9-124.7 5.2-3c23.6 40.5 47.4 81.2 71.1 121.8l93.6 0 0 6 -97 0Z" class="a"/></svg>
