<?xml version="1.0" encoding="UTF-8" standalone="no"?><!DOCTYPE svg PUBLIC "-//W3C//DTD SVG 1.1//EN" "http://www.w3.org/Graphics/SVG/1.1/DTD/svg11.dtd"><svg width="100%" height="100%" viewBox="0 0 500 327" version="1.1" xmlns="http://www.w3.org/2000/svg" xmlns:xlink="http://www.w3.org/1999/xlink" xml:space="preserve" style="fill-rule:evenodd;clip-rule:evenodd;stroke-linejoin:round;stroke-miterlimit:1.41421;"><rect id="Icons-H" x="0" y="0" width="500" height="326.135" style="fill:none;"/><g id="ic-reply-all"><g><path d="M219.522,173.516l0,62.967l-108.749,-66.714l58.116,-35.652l-58.116,-35.652l108.749,-66.714l0,66.714l165.88,0l0,192.346l-4.308,0l0,-117.295l-161.572,0Zm-46.808,-37.053l-54.291,33.306l97.099,59.567l0,-66.611l-42.808,-26.262Zm208.38,32.65l0,-66.245l-161.572,0l0,66.245l161.572,0Zm-204.555,-34.996l38.983,23.915l0,-47.83l-38.983,23.915Zm38.983,-28.608l0,-66.612c-32.366,19.856 -64.733,39.712 -97.099,59.568l54.291,33.305l42.808,-26.261Z" style="fill:#ffc519;"/></g></g></svg>