<?xml version="1.0" encoding="UTF-8" standalone="no"?><!DOCTYPE svg PUBLIC "-//W3C//DTD SVG 1.1//EN" "http://www.w3.org/Graphics/SVG/1.1/DTD/svg11.dtd"><svg width="100%" height="100%" viewBox="0 0 500 500" version="1.1" xmlns="http://www.w3.org/2000/svg" xmlns:xlink="http://www.w3.org/1999/xlink" xml:space="preserve" style="fill-rule:evenodd;clip-rule:evenodd;stroke-linejoin:round;stroke-miterlimit:1.41421;"><rect id="Icons" x="0" y="0" width="500" height="500" style="fill:none;"/><g id="ic-write"><g><path d="M329.703,164.481l-108.287,187.558l-63.152,56.852l17.154,-80.736l108.783,-189.944l45.502,26.27Zm-148.612,165.84l-13.121,61.759l48.725,-43.864l104.812,-181.539l-35.092,-20.26l-105.324,183.904Z" style="fill:#fff;"/><path d="M323.448,92.176l0.277,0.004l0.276,0.006l0.277,0.01l0.278,0.012l0.277,0.016l0.278,0.019l0.278,0.022l0.278,0.025l0.279,0.028l0.278,0.032l0.279,0.034l0.279,0.038l0.278,0.041l0.279,0.044l0.279,0.047l0.279,0.05l0.279,0.054l0.278,0.057l0.279,0.059l0.278,0.063l0.278,0.067l0.278,0.069l0.278,0.072l0.278,0.076l0.277,0.079l0.277,0.082l0.277,0.086l0.276,0.088l0.276,0.092l0.275,0.095l0.275,0.098l0.274,0.101l0.274,0.105l0.274,0.108l0.272,0.111l0.273,0.114l0.271,0.118l0.271,0.121l0.27,0.124l0.27,0.127l0.269,0.131l0.268,0.134l0.266,0.137l0.267,0.14l0.265,0.144l0.265,0.147l0.256,0.146l4.151,2.396l0.253,0.148l0.258,0.155l0.256,0.157l0.253,0.16l0.251,0.162l0.249,0.164l0.246,0.166l0.243,0.169l0.242,0.171l0.239,0.174l0.236,0.175l0.234,0.178l0.231,0.179l0.229,0.182l0.227,0.184l0.223,0.186l0.222,0.188l0.219,0.19l0.216,0.192l0.214,0.194l0.211,0.196l0.208,0.198l0.206,0.199l0.203,0.202l0.201,0.203l0.198,0.205l0.195,0.207l0.193,0.208l0.19,0.21l0.188,0.212l0.185,0.214l0.181,0.215l0.18,0.217l0.176,0.218l0.174,0.22l0.171,0.221l0.169,0.223l0.165,0.225l0.163,0.225l0.16,0.228l0.158,0.228l0.154,0.23l0.152,0.232l0.149,0.232l0.146,0.234l0.143,0.235l0.14,0.237l0.137,0.237l0.135,0.239l0.132,0.24l0.128,0.241l0.126,0.242l0.123,0.243l0.12,0.244l0.117,0.246l0.114,0.246l0.111,0.247l0.108,0.249l0.105,0.248l0.102,0.251l0.099,0.251l0.096,0.251l0.093,0.253l0.09,0.254l0.086,0.253l0.084,0.256l0.081,0.256l0.077,0.256l0.075,0.257l0.071,0.258l0.067,0.258l0.065,0.259l0.062,0.259l0.058,0.26l0.055,0.261l0.052,0.261l0.049,0.261l0.045,0.262l0.042,0.262l0.039,0.263l0.035,0.263l0.033,0.263l0.028,0.264l0.026,0.263l0.022,0.264l0.018,0.265l0.016,0.264l0.011,0.265l0.009,0.265l0.005,0.264l0.001,0.265l-0.002,0.265l-0.005,0.259l-0.005,0.137l-0.005,0.133l-0.006,0.132l-0.006,0.132l-0.008,0.133l-0.009,0.133l-0.009,0.132l-0.01,0.131l-0.012,0.132l-0.012,0.133l-0.013,0.132l-0.014,0.131l-0.015,0.133l-0.015,0.131l-0.017,0.132l-0.018,0.132l-0.018,0.131l-0.019,0.131l-0.021,0.132l-0.021,0.132l-0.022,0.13l-0.023,0.131l-0.024,0.131l-0.025,0.131l-0.026,0.131l-0.027,0.13l-0.027,0.131l-0.029,0.13l-0.029,0.13l-0.031,0.131l-0.032,0.13l-0.032,0.128l-0.033,0.131l-0.034,0.129l-0.035,0.129l-0.037,0.13l-0.037,0.128l-0.038,0.128l-0.039,0.129l-0.04,0.129l-0.04,0.127l-0.042,0.128l-0.043,0.128l-0.043,0.127l-0.045,0.127l-0.046,0.128l-0.046,0.126l-0.048,0.126l-0.048,0.127l-0.05,0.127l-0.05,0.125l-0.051,0.125l-0.053,0.126l-0.053,0.125l-0.054,0.125l-0.055,0.124l-0.057,0.124l-0.057,0.124l-0.058,0.123l-0.059,0.124l-0.06,0.123l-0.061,0.122l-0.062,0.123l-0.063,0.122l-0.064,0.122l-0.064,0.12l-0.066,0.121l-0.067,0.122l-0.068,0.12l-0.065,0.115l-14.485,25.088l-45.493,-26.265l14.432,-24.996l0.067,-0.115l0.071,-0.12l0.071,-0.119l0.073,-0.118l0.073,-0.117l0.073,-0.117l0.075,-0.116l0.075,-0.115l0.076,-0.115l0.077,-0.113l0.078,-0.114l0.079,-0.113l0.078,-0.111l0.08,-0.111l0.081,-0.112l0.081,-0.11l0.082,-0.109l0.083,-0.108l0.083,-0.107l0.084,-0.108l0.086,-0.106l0.085,-0.106l0.086,-0.105l0.087,-0.104l0.087,-0.103l0.089,-0.103l0.089,-0.102l0.089,-0.101l0.091,-0.101l0.091,-0.1l0.091,-0.099l0.092,-0.099l0.093,-0.097l0.094,-0.098l0.094,-0.096l0.095,-0.096l0.095,-0.094l0.096,-0.094l0.097,-0.094l0.098,-0.092l0.097,-0.092l0.099,-0.091l0.098,-0.09l0.1,-0.09l0.101,-0.089l0.1,-0.088l0.101,-0.087l0.102,-0.087l0.103,-0.086l0.103,-0.085l0.103,-0.085l0.105,-0.084l0.104,-0.082l0.105,-0.082l0.106,-0.082l0.107,-0.081l0.106,-0.08l0.108,-0.079l0.107,-0.078l0.108,-0.078l0.109,-0.077l0.11,-0.076l0.11,-0.075l0.11,-0.075l0.11,-0.074l0.112,-0.073l0.112,-0.072l0.112,-0.072l0.112,-0.071l0.114,-0.07l0.113,-0.069l0.118,-0.071l0.226,-0.133l0.231,-0.132l0.233,-0.128l0.234,-0.126l0.236,-0.123l0.238,-0.119l0.239,-0.117l0.241,-0.113l0.243,-0.111l0.244,-0.107l0.245,-0.105l0.247,-0.101l0.248,-0.098l0.249,-0.095l0.251,-0.093l0.252,-0.089l0.253,-0.086l0.255,-0.082l0.255,-0.08l0.257,-0.077l0.258,-0.074l0.259,-0.07l0.26,-0.068l0.261,-0.065l0.262,-0.061l0.263,-0.059l0.264,-0.055l0.265,-0.052l0.266,-0.049l0.266,-0.046l0.268,-0.043l0.268,-0.04l0.269,-0.037l0.27,-0.034l0.27,-0.031l0.271,-0.027l0.272,-0.025l0.272,-0.021l0.273,-0.019l0.274,-0.015l0.274,-0.012l0.274,-0.009l0.275,-0.006l0.276,-0.003l0.275,0Zm-0.454,6.002l-0.207,0.005l-0.207,0.006l-0.206,0.01l-0.205,0.011l-0.205,0.014l-0.204,0.016l-0.203,0.018l-0.202,0.021l-0.202,0.023l-0.201,0.025l-0.2,0.027l-0.199,0.03l-0.198,0.032l-0.197,0.034l-0.196,0.036l-0.196,0.039l-0.194,0.041l-0.194,0.043l-0.192,0.045l-0.191,0.047l-0.19,0.049l-0.19,0.052l-0.188,0.054l-0.187,0.056l-0.185,0.058l-0.185,0.06l-0.183,0.062l-0.182,0.064l-0.181,0.067l-0.179,0.068l-0.178,0.071l-0.177,0.072l-0.176,0.075l-0.174,0.077l-0.173,0.078l-0.171,0.081l-0.17,0.083l-0.168,0.085l-0.168,0.087l-0.165,0.088l-0.164,0.091l-0.163,0.093l-0.165,0.097l-0.076,0.045l-0.079,0.049l-0.079,0.049l-0.079,0.05l-0.079,0.05l-0.077,0.05l-0.078,0.051l-0.077,0.051l-0.077,0.053l-0.077,0.052l-0.075,0.053l-0.075,0.053l-0.075,0.054l-0.075,0.054l-0.075,0.055l-0.074,0.056l-0.073,0.055l-0.073,0.056l-0.073,0.057l-0.072,0.058l-0.072,0.057l-0.071,0.058l-0.071,0.059l-0.07,0.059l-0.07,0.059l-0.07,0.061l-0.07,0.06l-0.068,0.061l-0.068,0.061l-0.068,0.062l-0.067,0.063l-0.068,0.063l-0.066,0.063l-0.066,0.063l-0.065,0.065l-0.066,0.065l-0.064,0.065l-0.065,0.066l-0.063,0.066l-0.064,0.066l-0.062,0.067l-0.063,0.068l-0.062,0.068l-0.061,0.068l-0.061,0.07l-0.061,0.069l-0.06,0.07l-0.059,0.07l-0.06,0.071l-0.058,0.071l-0.059,0.073l-0.057,0.072l-0.057,0.072l-0.057,0.074l-0.056,0.073l-0.056,0.075l-0.056,0.075l-0.054,0.074l-0.054,0.076l-0.055,0.077l-0.053,0.076l-0.052,0.076l-0.053,0.078l-0.052,0.079l-0.051,0.078l-0.05,0.079l-0.051,0.08l-0.05,0.08l-0.049,0.08l-0.049,0.081l-0.048,0.081l-0.05,0.087l-11.426,19.791l35.1,20.265l11.479,-19.883l0.05,-0.086l0.046,-0.082l0.045,-0.082l0.044,-0.082l0.045,-0.083l0.043,-0.083l0.043,-0.083l0.042,-0.083l0.041,-0.083l0.041,-0.083l0.04,-0.084l0.04,-0.084l0.038,-0.084l0.038,-0.084l0.038,-0.085l0.037,-0.084l0.036,-0.085l0.035,-0.084l0.035,-0.086l0.034,-0.086l0.034,-0.085l0.032,-0.085l0.033,-0.086l0.032,-0.087l0.03,-0.085l0.031,-0.086l0.029,-0.087l0.029,-0.087l0.029,-0.086l0.028,-0.089l0.027,-0.086l0.026,-0.087l0.026,-0.089l0.025,-0.087l0.025,-0.087l0.024,-0.089l0.023,-0.088l0.023,-0.087l0.022,-0.09l0.021,-0.088l0.021,-0.088l0.02,-0.09l0.02,-0.089l0.019,-0.088l0.018,-0.091l0.018,-0.089l0.017,-0.089l0.016,-0.09l0.016,-0.09l0.015,-0.091l0.015,-0.09l0.014,-0.09l0.013,-0.09l0.013,-0.091l0.012,-0.09l0.011,-0.091l0.011,-0.092l0.011,-0.09l0.009,-0.092l0.009,-0.091l0.009,-0.091l0.007,-0.092l0.008,-0.092l0.006,-0.092l0.006,-0.091l0.005,-0.092l0.005,-0.092l0.004,-0.093l0.004,-0.091l0.002,-0.088l0.004,-0.191l0.002,-0.185l-0.001,-0.185l-0.003,-0.187l-0.006,-0.186l-0.009,-0.187l-0.01,-0.187l-0.014,-0.187l-0.015,-0.187l-0.018,-0.189l-0.021,-0.187l-0.023,-0.188l-0.025,-0.189l-0.028,-0.187l-0.03,-0.188l-0.033,-0.189l-0.035,-0.189l-0.037,-0.188l-0.04,-0.188l-0.042,-0.189l-0.045,-0.189l-0.047,-0.188l-0.05,-0.188l-0.052,-0.188l-0.054,-0.188l-0.057,-0.188l-0.059,-0.188l-0.061,-0.187l-0.064,-0.188l-0.067,-0.186l-0.068,-0.186l-0.071,-0.187l-0.074,-0.186l-0.075,-0.185l-0.078,-0.186l-0.081,-0.185l-0.082,-0.184l-0.086,-0.184l-0.087,-0.183l-0.09,-0.183l-0.092,-0.182l-0.094,-0.182l-0.097,-0.181l-0.099,-0.18l-0.101,-0.18l-0.104,-0.179l-0.106,-0.178l-0.108,-0.178l-0.11,-0.177l-0.113,-0.176l-0.115,-0.175l-0.117,-0.175l-0.12,-0.174l-0.121,-0.172l-0.124,-0.172l-0.127,-0.171l-0.128,-0.17l-0.131,-0.169l-0.132,-0.168l-0.135,-0.167l-0.138,-0.166l-0.139,-0.165l-0.141,-0.163l-0.144,-0.163l-0.146,-0.161l-0.148,-0.16l-0.15,-0.159l-0.153,-0.158l-0.154,-0.156l-0.157,-0.156l-0.158,-0.153l-0.161,-0.153l-0.163,-0.151l-0.165,-0.15l-0.168,-0.148l-0.169,-0.147l-0.171,-0.146l-0.174,-0.144l-0.175,-0.142l-0.178,-0.142l-0.179,-0.139l-0.181,-0.138l-0.184,-0.136l-0.186,-0.135l-0.188,-0.133l-0.189,-0.131l-0.192,-0.13l-0.194,-0.128l-0.196,-0.126l-0.197,-0.125l-0.2,-0.123l-0.202,-0.121l-0.211,-0.123l-4.122,-2.38l-0.213,-0.121l-0.207,-0.115l-0.208,-0.113l-0.208,-0.11l-0.209,-0.107l-0.209,-0.104l-0.209,-0.102l-0.21,-0.099l-0.211,-0.097l-0.211,-0.094l-0.211,-0.092l-0.212,-0.088l-0.212,-0.087l-0.212,-0.084l-0.213,-0.081l-0.213,-0.079l-0.213,-0.076l-0.213,-0.073l-0.214,-0.071l-0.213,-0.069l-0.214,-0.066l-0.214,-0.063l-0.214,-0.061l-0.214,-0.058l-0.214,-0.056l-0.215,-0.054l-0.214,-0.051l-0.214,-0.048l-0.214,-0.046l-0.214,-0.044l-0.214,-0.041l-0.214,-0.038l-0.214,-0.037l-0.213,-0.033l-0.214,-0.032l-0.213,-0.028l-0.213,-0.027l-0.212,-0.024l-0.212,-0.021l-0.212,-0.019l-0.212,-0.017l-0.211,-0.015l-0.211,-0.012l-0.21,-0.009l-0.21,-0.007l-0.209,-0.005l-0.209,-0.003l-0.209,0l-0.207,0.002Z" style="fill:#fff;"/></g></g></svg>