<?xml version="1.0" encoding="UTF-8" standalone="no"?><!DOCTYPE svg PUBLIC "-//W3C//DTD SVG 1.1//EN" "http://www.w3.org/Graphics/SVG/1.1/DTD/svg11.dtd"><svg width="100%" height="100%" viewBox="0 0 500 500" version="1.1" xmlns="http://www.w3.org/2000/svg" xmlns:xlink="http://www.w3.org/1999/xlink" xml:space="preserve" style="fill-rule:evenodd;clip-rule:evenodd;stroke-linejoin:round;stroke-miterlimit:1.41421;"><rect id="Icons" x="0" y="0" width="500" height="500" style="fill:none;"/><g id="ic-write"><g><path d="M329.703,164.481l-108.287,187.558l-1.456,1.311l-61.696,55.541l17.154,-80.736l108.783,-189.944c15.167,8.757 30.334,17.513 45.502,26.27Zm-148.612,165.84l-13.121,61.759l47.975,-43.189l0.75,-0.675l104.812,-181.539l-35.092,-20.26c-35.108,61.302 -70.216,122.603 -105.324,183.904Z" style="fill:#fff;fill-rule:nonzero;"/><path d="M323.448,92.176c0.835,0.01 1.668,0.053 2.498,0.142c1.988,0.214 3.949,0.663 5.835,1.325c1.022,0.358 2.022,0.779 2.993,1.258c0.45,0.222 0.892,0.458 1.331,0.702c1.473,0.84 2.938,1.694 4.407,2.542c0.429,0.251 0.854,0.51 1.271,0.782c0.741,0.484 1.459,1.004 2.149,1.558c2.495,2.005 4.629,4.463 6.217,7.245c1.292,2.261 2.22,4.735 2.681,7.3c0.265,1.479 0.375,2.985 0.313,4.486c-0.073,1.776 -0.387,3.54 -0.945,5.227c-0.4,1.208 -0.925,2.368 -1.556,3.471l-14.485,25.088l-45.493,-26.265c4.856,-8.411 9.622,-16.874 14.57,-25.231c0.635,-1.055 1.365,-2.05 2.191,-2.964c1.227,-1.358 2.652,-2.532 4.21,-3.49c1.286,-0.791 2.661,-1.435 4.088,-1.93c1.528,-0.529 3.114,-0.886 4.719,-1.078c0.724,-0.087 1.451,-0.135 2.18,-0.159c0.276,-0.006 0.551,-0.009 0.826,-0.009Zm-0.454,6.002c-0.548,0.012 -1.094,0.042 -1.639,0.101c-1.248,0.134 -2.482,0.402 -3.668,0.813c-1.015,0.352 -1.994,0.808 -2.909,1.371c-1.074,0.66 -2.057,1.467 -2.902,2.402c-0.606,0.67 -1.135,1.404 -1.589,2.185l-11.426,19.791l35.1,20.265c3.859,-6.684 7.788,-13.327 11.575,-20.051c0.432,-0.782 0.786,-1.603 1.049,-2.457c0.607,-1.979 0.717,-4.088 0.402,-6.13c-0.302,-1.96 -0.984,-3.853 -1.947,-5.583c-1.189,-2.138 -2.803,-4.029 -4.691,-5.58c-0.59,-0.485 -1.206,-0.937 -1.846,-1.354c-0.261,-0.171 -0.527,-0.334 -0.795,-0.495c-1.44,-0.842 -2.888,-1.669 -4.333,-2.503c-0.344,-0.196 -0.691,-0.387 -1.045,-0.566c-0.753,-0.381 -1.529,-0.718 -2.323,-1.007c-1.583,-0.575 -3.237,-0.956 -4.913,-1.117c-0.699,-0.067 -1.399,-0.092 -2.1,-0.085Z" style="fill:#fff;fill-rule:nonzero;"/></g></g></svg>