<?xml version="1.0" encoding="UTF-8" standalone="no"?><!DOCTYPE svg PUBLIC "-//W3C//DTD SVG 1.1//EN" "http://www.w3.org/Graphics/SVG/1.1/DTD/svg11.dtd"><svg width="100%" height="100%" viewBox="0 0 500 500" version="1.1" xmlns="http://www.w3.org/2000/svg" xmlns:xlink="http://www.w3.org/1999/xlink" xml:space="preserve" style="fill-rule:evenodd;clip-rule:evenodd;stroke-linejoin:round;stroke-miterlimit:1.41421;"><rect id="Icons" x="0" y="0" width="500" height="500" style="fill:none;"/><g id="ic-write"><g><path d="M223.485,349.221l0.092,0.873l-61.245,55.135l-2.93,-1.692l17.126,-80.607l0.802,-0.357l46.155,26.648Zm-55.515,42.859l46.009,-41.419l-33.144,-19.136l-12.865,60.555Z" style="fill:#00dd95;"/><path d="M329.703,164.481l-103.559,179.369l-45.493,-26.265l103.559,-179.369l45.493,26.265Zm-140.856,150.908l35.101,20.265l97.559,-168.977l-35.101,-20.265l-97.559,168.977Z" style="fill:#00dd95;"/><path d="M324.606,92.546l0.145,0.002l0.145,0.002l0.145,0.003l0.144,0.005l0.145,0.005l0.145,0.006l0.145,0.006l0.144,0.008l0.146,0.009l0.144,0.009l0.145,0.01l0.145,0.012l0.145,0.012l0.145,0.013l0.145,0.014l0.144,0.015l0.145,0.015l0.145,0.017l0.145,0.017l0.144,0.019l0.145,0.019l0.145,0.02l0.145,0.021l0.144,0.022l0.145,0.023l0.144,0.024l0.145,0.024l0.144,0.026l0.144,0.026l0.145,0.028l0.144,0.028l0.144,0.029l0.144,0.031l0.143,0.031l0.144,0.032l0.144,0.032l0.143,0.034l0.144,0.035l0.143,0.036l0.143,0.036l0.144,0.038l0.143,0.038l0.142,0.039l0.143,0.04l0.143,0.041l0.142,0.043l0.142,0.043l0.142,0.043l0.142,0.045l0.142,0.046l0.142,0.047l0.141,0.047l0.141,0.049l0.141,0.049l0.142,0.051l0.14,0.051l0.141,0.052l0.14,0.053l0.14,0.055l0.14,0.055l0.14,0.056l0.139,0.057l0.14,0.058l0.139,0.059l0.139,0.059l0.138,0.061l0.139,0.062l0.138,0.062l0.138,0.064l0.137,0.064l0.137,0.065l0.138,0.067l0.136,0.067l0.137,0.068l0.136,0.069l0.136,0.071l0.136,0.071l0.135,0.072l0.135,0.073l0.135,0.074l0.135,0.075l0.134,0.075l0.13,0.074l4.145,2.394l0.128,0.074l0.132,0.078l0.132,0.079l0.13,0.079l0.13,0.08l0.13,0.081l0.129,0.082l0.128,0.082l0.127,0.083l0.126,0.084l0.127,0.084l0.125,0.085l0.125,0.086l0.124,0.087l0.123,0.087l0.123,0.088l0.122,0.088l0.121,0.09l0.121,0.09l0.119,0.09l0.12,0.091l0.118,0.092l0.118,0.093l0.117,0.093l0.116,0.093l0.116,0.095l0.115,0.095l0.114,0.096l0.113,0.096l0.113,0.097l0.112,0.098l0.112,0.098l0.11,0.099l0.111,0.099l0.109,0.1l0.108,0.1l0.108,0.102l0.107,0.102l0.107,0.102l0.105,0.103l0.105,0.103l0.104,0.104l0.103,0.105l0.103,0.106l0.103,0.106l0.1,0.105l0.101,0.107l0.1,0.108l0.098,0.107l0.099,0.11l0.098,0.109l0.096,0.109l0.096,0.11l0.096,0.111l0.095,0.111l0.093,0.111l0.093,0.113l0.093,0.112l0.091,0.113l0.091,0.114l0.09,0.114l0.09,0.115l0.088,0.115l0.088,0.115l0.087,0.116l0.086,0.117l0.086,0.117l0.085,0.117l0.084,0.118l0.083,0.119l0.083,0.119l0.081,0.119l0.081,0.119l0.08,0.12l0.08,0.121l0.079,0.121l0.077,0.121l0.078,0.122l0.076,0.123l0.076,0.122l0.074,0.123l0.075,0.124l0.073,0.123l0.073,0.125l0.071,0.124l0.071,0.126l0.07,0.125l0.07,0.126l0.068,0.126l0.068,0.126l0.067,0.127l0.066,0.128l0.066,0.127l0.064,0.128l0.064,0.129l0.063,0.128l0.063,0.129l0.061,0.13l0.061,0.129l0.062,0.135l0.115,0.257l0.115,0.262l0.111,0.264l0.108,0.265l0.105,0.265l0.101,0.268l0.099,0.268l0.095,0.269l0.091,0.27l0.089,0.273l0.085,0.272l0.082,0.273l0.079,0.275l0.076,0.275l0.072,0.276l0.069,0.277l0.066,0.278l0.062,0.279l0.059,0.279l0.056,0.281l0.052,0.281l0.049,0.281l0.046,0.282l0.042,0.283l0.039,0.283l0.036,0.284l0.032,0.284l0.028,0.281l0.014,0.147l0.012,0.143l0.011,0.142l0.011,0.143l0.01,0.143l0.008,0.143l0.008,0.144l0.007,0.143l0.007,0.143l0.005,0.144l0.005,0.143l0.003,0.144l0.003,0.143l0.002,0.143l0.001,0.145l0,0.145l0,0.143l-0.002,0.142l-0.002,0.145l-0.003,0.145l-0.005,0.143l-0.005,0.144l-0.005,0.145l-0.007,0.143l-0.008,0.144l-0.008,0.146l-0.01,0.143l-0.01,0.144l-0.011,0.145l-0.012,0.143l-0.013,0.145l-0.014,0.144l-0.015,0.144l-0.015,0.143l-0.017,0.144l-0.017,0.146l-0.019,0.143l-0.019,0.143l-0.02,0.145l-0.021,0.144l-0.022,0.143l-0.022,0.145l-0.024,0.143l-0.025,0.143l-0.025,0.144l-0.027,0.145l-0.027,0.142l-0.028,0.144l-0.029,0.143l-0.03,0.143l-0.031,0.143l-0.032,0.143l-0.032,0.143l-0.034,0.143l-0.035,0.144l-0.035,0.141l-0.036,0.143l-0.037,0.142l-0.038,0.142l-0.04,0.143l-0.04,0.141l-0.041,0.142l-0.042,0.143l-0.042,0.141l-0.044,0.141l-0.044,0.141l-0.046,0.141l-0.046,0.141l-0.048,0.142l-0.048,0.14l-0.049,0.14l-0.05,0.14l-0.052,0.14l-0.052,0.14l-0.053,0.14l-0.053,0.139l-0.055,0.138l-0.056,0.14l-0.056,0.139l-0.058,0.139l-0.059,0.138l-0.059,0.138l-0.061,0.138l-0.061,0.137l-0.062,0.137l-0.063,0.138l-0.065,0.138l-0.064,0.136l-0.066,0.135l-0.067,0.137l-0.068,0.136l-0.069,0.135l-0.07,0.136l-0.071,0.135l-0.071,0.135l-0.073,0.134l-0.073,0.134l-0.075,0.134l-0.075,0.134l-0.074,0.129l-16.531,28.632l-45.493,-26.265l16.469,-28.525l0.076,-0.13l0.079,-0.134l0.078,-0.131l0.08,-0.131l0.081,-0.131l0.081,-0.131l0.082,-0.129l0.083,-0.128l0.083,-0.128l0.084,-0.128l0.085,-0.126l0.085,-0.126l0.087,-0.126l0.087,-0.125l0.088,-0.124l0.088,-0.123l0.089,-0.122l0.09,-0.123l0.09,-0.121l0.091,-0.12l0.091,-0.119l0.093,-0.12l0.093,-0.118l0.094,-0.118l0.094,-0.117l0.094,-0.115l0.096,-0.117l0.097,-0.115l0.097,-0.113l0.097,-0.113l0.098,-0.113l0.099,-0.113l0.099,-0.111l0.1,-0.11l0.1,-0.11l0.101,-0.109l0.102,-0.109l0.103,-0.107l0.102,-0.107l0.104,-0.106l0.104,-0.105l0.105,-0.105l0.105,-0.105l0.106,-0.102l0.106,-0.103l0.107,-0.102l0.107,-0.101l0.108,-0.1l0.109,-0.1l0.108,-0.098l0.11,-0.098l0.111,-0.098l0.111,-0.097l0.11,-0.095l0.112,-0.095l0.112,-0.094l0.113,-0.094l0.113,-0.093l0.114,-0.092l0.114,-0.091l0.115,-0.091l0.115,-0.09l0.115,-0.088l0.117,-0.089l0.117,-0.088l0.117,-0.087l0.118,-0.086l0.117,-0.085l0.119,-0.084l0.119,-0.084l0.119,-0.083l0.12,-0.082l0.12,-0.081l0.121,-0.081l0.122,-0.08l0.121,-0.079l0.122,-0.078l0.123,-0.078l0.122,-0.077l0.123,-0.076l0.124,-0.075l0.124,-0.074l0.125,-0.074l0.125,-0.073l0.125,-0.072l0.126,-0.071l0.126,-0.071l0.126,-0.069l0.127,-0.069l0.127,-0.068l0.128,-0.068l0.128,-0.067l0.128,-0.065l0.129,-0.065l0.129,-0.064l0.129,-0.064l0.13,-0.063l0.129,-0.061l0.132,-0.062l0.13,-0.06l0.131,-0.059l0.132,-0.059l0.131,-0.058l0.132,-0.057l0.132,-0.056l0.133,-0.056l0.133,-0.054l0.133,-0.054l0.134,-0.053l0.134,-0.052l0.134,-0.052l0.134,-0.05l0.135,-0.05l0.14,-0.051l0.266,-0.094l0.272,-0.092l0.273,-0.089l0.274,-0.086l0.274,-0.082l0.276,-0.08l0.277,-0.076l0.278,-0.072l0.278,-0.069l0.279,-0.066l0.281,-0.063l0.281,-0.059l0.281,-0.056l0.278,-0.052l0.146,-0.026l0.141,-0.024l0.142,-0.024l0.142,-0.022l0.142,-0.022l0.142,-0.021l0.142,-0.02l0.143,-0.019l0.143,-0.018l0.142,-0.018l0.143,-0.016l0.143,-0.016l0.143,-0.015l0.144,-0.014l0.143,-0.013l0.143,-0.012l0.144,-0.012l0.144,-0.011l0.143,-0.009l0.144,-0.009l0.144,-0.008l0.144,-0.007l0.144,-0.007l0.144,-0.005l0.144,-0.005l0.145,-0.003l0.144,-0.003l0.145,-0.002l0.144,-0.001l0.145,0l0.144,0Zm-0.262,6l-0.108,0.001l-0.108,0.001l-0.109,0.002l-0.107,0.003l-0.109,0.003l-0.108,0.004l-0.108,0.005l-0.108,0.005l-0.108,0.007l-0.108,0.006l-0.108,0.007l-0.107,0.008l-0.108,0.009l-0.107,0.009l-0.108,0.01l-0.108,0.011l-0.107,0.011l-0.107,0.012l-0.107,0.012l-0.108,0.013l-0.107,0.014l-0.106,0.014l-0.107,0.015l-0.107,0.016l-0.107,0.016l-0.106,0.017l-0.107,0.018l-0.106,0.018l-0.102,0.018l-0.216,0.04l-0.211,0.042l-0.211,0.045l-0.211,0.047l-0.209,0.049l-0.21,0.053l-0.208,0.054l-0.208,0.057l-0.207,0.06l-0.206,0.062l-0.206,0.064l-0.205,0.067l-0.204,0.069l-0.208,0.073l-0.097,0.036l-0.101,0.037l-0.101,0.038l-0.101,0.039l-0.1,0.039l-0.1,0.04l-0.1,0.04l-0.1,0.041l-0.099,0.042l-0.1,0.042l-0.099,0.043l-0.099,0.043l-0.098,0.044l-0.099,0.045l-0.098,0.045l-0.097,0.046l-0.098,0.046l-0.097,0.047l-0.097,0.048l-0.097,0.048l-0.097,0.049l-0.096,0.049l-0.096,0.05l-0.095,0.05l-0.096,0.051l-0.095,0.052l-0.095,0.053l-0.094,0.052l-0.094,0.054l-0.094,0.054l-0.094,0.054l-0.093,0.055l-0.093,0.056l-0.093,0.057l-0.092,0.057l-0.092,0.057l-0.092,0.058l-0.091,0.059l-0.092,0.059l-0.09,0.06l-0.09,0.06l-0.09,0.061l-0.09,0.062l-0.09,0.062l-0.088,0.062l-0.089,0.063l-0.089,0.065l-0.088,0.064l-0.087,0.065l-0.087,0.065l-0.087,0.066l-0.087,0.067l-0.086,0.067l-0.086,0.067l-0.085,0.069l-0.085,0.069l-0.085,0.069l-0.084,0.07l-0.084,0.071l-0.083,0.071l-0.084,0.072l-0.083,0.072l-0.081,0.072l-0.082,0.073l-0.082,0.075l-0.082,0.074l-0.08,0.075l-0.08,0.075l-0.08,0.076l-0.079,0.077l-0.08,0.078l-0.078,0.077l-0.078,0.078l-0.078,0.079l-0.077,0.079l-0.078,0.081l-0.076,0.08l-0.076,0.081l-0.076,0.081l-0.075,0.082l-0.075,0.083l-0.074,0.084l-0.074,0.083l-0.073,0.084l-0.073,0.085l-0.073,0.086l-0.072,0.086l-0.071,0.086l-0.071,0.087l-0.071,0.088l-0.07,0.088l-0.07,0.089l-0.068,0.088l-0.069,0.09l-0.069,0.091l-0.067,0.091l-0.067,0.091l-0.067,0.091l-0.066,0.093l-0.066,0.093l-0.065,0.093l-0.065,0.094l-0.064,0.095l-0.064,0.095l-0.063,0.096l-0.063,0.096l-0.062,0.097l-0.062,0.098l-0.061,0.097l-0.06,0.098l-0.061,0.099l-0.059,0.1l-0.059,0.099l-0.06,0.105l-13.465,23.322l35.1,20.265l13.526,-23.428l0.06,-0.105l0.056,-0.1l0.056,-0.1l0.056,-0.102l0.054,-0.101l0.054,-0.101l0.053,-0.101l0.052,-0.101l0.052,-0.102l0.051,-0.102l0.05,-0.101l0.05,-0.103l0.049,-0.103l0.047,-0.102l0.047,-0.102l0.047,-0.104l0.046,-0.103l0.045,-0.103l0.045,-0.103l0.044,-0.104l0.043,-0.103l0.042,-0.104l0.041,-0.103l0.041,-0.105l0.041,-0.104l0.04,-0.105l0.038,-0.104l0.038,-0.104l0.038,-0.105l0.037,-0.105l0.036,-0.106l0.035,-0.104l0.035,-0.105l0.034,-0.105l0.033,-0.106l0.033,-0.106l0.032,-0.106l0.031,-0.105l0.03,-0.106l0.03,-0.106l0.029,-0.105l0.029,-0.106l0.027,-0.107l0.028,-0.106l0.026,-0.108l0.026,-0.105l0.025,-0.107l0.024,-0.107l0.024,-0.106l0.023,-0.107l0.022,-0.107l0.022,-0.107l0.021,-0.107l0.021,-0.108l0.019,-0.106l0.019,-0.107l0.019,-0.108l0.017,-0.107l0.017,-0.106l0.016,-0.108l0.016,-0.109l0.015,-0.106l0.014,-0.108l0.014,-0.108l0.013,-0.106l0.012,-0.108l0.012,-0.108l0.011,-0.108l0.01,-0.108l0.01,-0.107l0.009,-0.108l0.008,-0.107l0.008,-0.109l0.007,-0.108l0.006,-0.106l0.006,-0.108l0.005,-0.108l0.005,-0.107l0.003,-0.109l0.004,-0.108l0.002,-0.107l0.002,-0.107l0.001,-0.109l0,-0.108l0,-0.106l0,-0.107l-0.002,-0.108l-0.002,-0.108l-0.003,-0.107l-0.003,-0.108l-0.004,-0.106l-0.005,-0.109l-0.005,-0.107l-0.006,-0.106l-0.007,-0.108l-0.007,-0.107l-0.008,-0.107l-0.009,-0.107l-0.009,-0.107l-0.009,-0.102l-0.022,-0.218l-0.024,-0.213l-0.027,-0.212l-0.029,-0.213l-0.032,-0.211l-0.034,-0.212l-0.037,-0.211l-0.039,-0.211l-0.042,-0.209l-0.044,-0.21l-0.047,-0.209l-0.049,-0.208l-0.052,-0.208l-0.054,-0.207l-0.057,-0.207l-0.059,-0.205l-0.061,-0.205l-0.064,-0.205l-0.066,-0.203l-0.069,-0.203l-0.072,-0.202l-0.073,-0.201l-0.076,-0.2l-0.079,-0.199l-0.081,-0.199l-0.083,-0.197l-0.086,-0.197l-0.09,-0.2l-0.042,-0.093l-0.046,-0.097l-0.046,-0.096l-0.046,-0.097l-0.048,-0.097l-0.048,-0.096l-0.048,-0.095l-0.049,-0.096l-0.05,-0.095l-0.05,-0.095l-0.051,-0.095l-0.051,-0.094l-0.052,-0.095l-0.052,-0.094l-0.053,-0.093l-0.054,-0.093l-0.054,-0.093l-0.055,-0.093l-0.055,-0.092l-0.057,-0.092l-0.056,-0.092l-0.057,-0.091l-0.058,-0.091l-0.058,-0.091l-0.059,-0.091l-0.059,-0.089l-0.06,-0.09l-0.061,-0.09l-0.061,-0.089l-0.062,-0.089l-0.061,-0.088l-0.063,-0.088l-0.064,-0.088l-0.063,-0.087l-0.065,-0.087l-0.065,-0.087l-0.066,-0.086l-0.066,-0.086l-0.067,-0.086l-0.067,-0.085l-0.068,-0.085l-0.068,-0.084l-0.069,-0.084l-0.069,-0.084l-0.071,-0.083l-0.07,-0.083l-0.071,-0.083l-0.072,-0.082l-0.073,-0.082l-0.072,-0.081l-0.073,-0.081l-0.074,-0.081l-0.075,-0.08l-0.075,-0.079l-0.075,-0.08l-0.076,-0.079l-0.077,-0.078l-0.077,-0.078l-0.078,-0.078l-0.078,-0.077l-0.079,-0.077l-0.079,-0.077l-0.08,-0.075l-0.08,-0.076l-0.082,-0.075l-0.081,-0.075l-0.082,-0.074l-0.083,-0.074l-0.083,-0.073l-0.084,-0.073l-0.084,-0.072l-0.085,-0.072l-0.086,-0.072l-0.085,-0.071l-0.086,-0.07l-0.087,-0.07l-0.088,-0.07l-0.088,-0.069l-0.089,-0.069l-0.089,-0.068l-0.089,-0.068l-0.091,-0.067l-0.09,-0.067l-0.091,-0.066l-0.092,-0.066l-0.093,-0.066l-0.092,-0.064l-0.094,-0.064l-0.094,-0.064l-0.094,-0.063l-0.095,-0.063l-0.096,-0.062l-0.096,-0.062l-0.097,-0.061l-0.097,-0.061l-0.097,-0.06l-0.099,-0.06l-0.099,-0.059l-0.099,-0.059l-0.104,-0.06l-4.127,-2.383l-0.106,-0.06l-0.101,-0.058l-0.101,-0.056l-0.102,-0.056l-0.101,-0.055l-0.102,-0.054l-0.102,-0.053l-0.102,-0.053l-0.103,-0.052l-0.102,-0.051l-0.103,-0.051l-0.103,-0.049l-0.103,-0.049l-0.104,-0.049l-0.103,-0.048l-0.103,-0.047l-0.104,-0.046l-0.104,-0.045l-0.104,-0.045l-0.104,-0.044l-0.104,-0.043l-0.105,-0.043l-0.105,-0.042l-0.104,-0.041l-0.105,-0.041l-0.105,-0.04l-0.106,-0.039l-0.105,-0.038l-0.105,-0.038l-0.106,-0.037l-0.106,-0.036l-0.106,-0.036l-0.106,-0.035l-0.105,-0.034l-0.106,-0.033l-0.107,-0.033l-0.106,-0.032l-0.107,-0.032l-0.106,-0.031l-0.107,-0.03l-0.107,-0.029l-0.107,-0.029l-0.107,-0.028l-0.107,-0.027l-0.107,-0.027l-0.107,-0.026l-0.107,-0.025l-0.107,-0.024l-0.108,-0.024l-0.108,-0.024l-0.107,-0.022l-0.108,-0.022l-0.108,-0.021l-0.107,-0.02l-0.108,-0.02l-0.108,-0.019l-0.108,-0.019l-0.108,-0.018l-0.108,-0.017l-0.108,-0.016l-0.109,-0.016l-0.108,-0.015l-0.108,-0.014l-0.108,-0.014l-0.109,-0.013l-0.108,-0.013l-0.108,-0.011l-0.109,-0.011l-0.108,-0.011l-0.109,-0.01l-0.108,-0.009l-0.108,-0.008l-0.109,-0.008l-0.108,-0.007l-0.109,-0.006l-0.108,-0.006l-0.109,-0.005l-0.108,-0.005l-0.109,-0.003l-0.108,-0.004l-0.108,-0.002l-0.109,-0.002l-0.108,-0.001l-0.109,0l-0.108,0Z" style="fill:#00dd95;"/></g></g></svg>