<?xml version="1.0" encoding="UTF-8" standalone="no"?><!DOCTYPE svg PUBLIC "-//W3C//DTD SVG 1.1//EN" "http://www.w3.org/Graphics/SVG/1.1/DTD/svg11.dtd"><svg width="100%" height="100%" viewBox="0 0 500 500" version="1.1" xmlns="http://www.w3.org/2000/svg" xmlns:xlink="http://www.w3.org/1999/xlink" xml:space="preserve" style="fill-rule:evenodd;clip-rule:evenodd;stroke-linejoin:round;stroke-miterlimit:1.41421;"><rect id="Icons" x="0" y="0" width="500" height="500" style="fill:none;"/><g id="ic-write"><g><path d="M223.485,349.221l0.092,0.873l-61.245,55.135l-2.93,-1.692l17.126,-80.607l0.802,-0.357c15.385,8.883 30.77,17.765 46.155,26.648Zm-55.515,42.859l46.009,-41.419l-33.144,-19.136c-4.288,20.185 -8.577,40.37 -12.865,60.555Z" style="fill:#fff;fill-rule:nonzero;"/><path d="M329.703,164.481l-103.559,179.369l-45.493,-26.265l103.559,-179.369c15.164,8.755 30.329,17.51 45.493,26.265Zm-140.856,150.908l35.101,20.265l97.559,-168.977l-35.101,-20.265c-32.519,56.326 -65.039,112.651 -97.559,168.977Z" style="fill:#fff;fill-rule:nonzero;"/><path d="M324.606,92.546c0.823,0.009 1.645,0.055 2.462,0.146c1.561,0.174 3.104,0.503 4.599,0.98c1.589,0.507 3.116,1.184 4.567,2.004c1.515,0.868 3.032,1.733 4.535,2.62c0.824,0.493 1.621,1.03 2.382,1.616c1.557,1.201 2.964,2.594 4.177,4.141c1.274,1.625 2.334,3.415 3.148,5.313c0.638,1.487 1.124,3.04 1.449,4.626c0.413,2.014 0.565,4.08 0.45,6.132c-0.1,1.796 -0.407,3.58 -0.911,5.307c-0.334,1.147 -0.756,2.267 -1.259,3.351c-0.278,0.599 -0.583,1.184 -0.907,1.759l-0.074,0.129l-16.531,28.632l-45.493,-26.265c5.541,-9.597 10.991,-19.246 16.624,-28.789c0.105,-0.175 0.212,-0.35 0.32,-0.524c0.326,-0.514 0.668,-1.018 1.031,-1.508c0.8,-1.079 1.691,-2.091 2.661,-3.021c1.543,-1.479 3.288,-2.748 5.169,-3.763c1.729,-0.934 3.573,-1.653 5.477,-2.139c1.861,-0.475 3.771,-0.72 5.691,-0.746c0.144,-0.001 0.289,-0.001 0.433,-0.001Zm-0.262,6c-1.477,0.011 -2.947,0.195 -4.379,0.561c-1.603,0.409 -3.15,1.039 -4.582,1.869c-1.356,0.785 -2.608,1.749 -3.711,2.861c-1.093,1.1 -2.032,2.342 -2.81,3.682l-13.465,23.322l35.1,20.265c4.548,-7.877 9.168,-15.713 13.642,-23.633c0.368,-0.661 0.699,-1.342 0.983,-2.045c0.536,-1.326 0.911,-2.717 1.113,-4.134c0.208,-1.457 0.232,-2.94 0.076,-4.404c-0.129,-1.206 -0.382,-2.4 -0.751,-3.556c-0.9,-2.816 -2.502,-5.394 -4.639,-7.439c-1.005,-0.96 -2.121,-1.794 -3.317,-2.5c-1.476,-0.859 -2.951,-1.721 -4.438,-2.561c-1.188,-0.661 -2.443,-1.195 -3.749,-1.576c-1.543,-0.45 -3.141,-0.684 -4.748,-0.711c-0.108,-0.001 -0.216,-0.001 -0.325,-0.001Z" style="fill:#fff;fill-rule:nonzero;"/></g></g></svg>