<svg xmlns="http://www.w3.org/2000/svg" width="100%" height="100%" viewBox="0 0 500 500" stroke-linejoin="round"><rect width="500" height="500" fill="none"/><path d="M291.7 295.9c-4.4 4.1-9.1 7.9-14.1 11.3 -5.8 3.9-11.9 7.2-18.4 9.9 -6.6 2.8-13.6 4.9-20.6 6.3 -6.8 1.4-13.8 2-20.7 2.1 -7.1 0-14.2-0.6-21.1-2 -7-1.4-13.8-3.4-20.3-6.1 -6-2.5-11.9-5.5-17.3-9.1 -5.7-3.7-11.1-7.9-16-12.6 -4.6-4.4-8.8-9.2-12.6-14.3 -3.9-5.3-7.2-10.9-10.1-16.7 -2.4-5-4.5-10.3-6.1-15.6 -1.6-5.2-2.8-10.6-3.6-16 -1.7-11.8-1.4-23.8 0.8-35.5 1.9-10 5.2-19.7 9.8-28.7 3-5.9 6.5-11.5 10.6-16.8 3.5-4.6 7.5-9 11.7-13 8.6-8.1 18.5-14.8 29.3-19.7 8.4-3.8 17.2-6.5 26.3-8.1 3.8-0.7 7.6-1.1 11.5-1.4 2-0.1 3.9-0.2 5.9-0.2 0.5 0 0.9 0 1.4 0 2 0 3.9 0.1 5.9 0.2 3.9 0.2 7.7 0.6 11.5 1.3 9.1 1.5 18 4.2 26.3 8 5.6 2.5 10.9 5.5 16 8.9 4.9 3.3 9.6 7 13.9 11.1 9 8.5 16.5 18.5 22.1 29.4 2.4 4.7 4.5 9.5 6.1 14.5 1.6 4.6 2.8 9.4 3.7 14.2 2.2 11.6 2.5 23.5 0.9 35.2 -0.7 5.3-1.9 10.6-3.4 15.7 -1.6 5.5-3.7 10.8-6.1 16 -2.7 5.7-5.9 11.1-9.6 16.2 -2.9 4-6 7.8-9.4 11.4l92.8 92.8 -4.2 4.2 -92.8-92.8Zm-74.5-180.4c-1.9 0-3.7 0.1-5.6 0.2 -3.6 0.2-7.3 0.6-10.9 1.2 -8.6 1.4-16.9 3.9-24.9 7.5 -5.2 2.4-10.3 5.2-15.1 8.4 -4.7 3.1-9.1 6.6-13.2 10.5 -8.4 7.9-15.5 17.3-20.8 27.5 -4.4 8.5-7.6 17.7-9.4 27.1 -1.2 6.3-1.9 12.8-1.9 19.3 0 4.8 0.3 9.5 0.9 14.3 0.7 5 1.8 10 3.2 14.9 1.5 5.2 3.5 10.2 5.8 15.1 2.5 5.2 5.4 10.2 8.7 14.8 3.7 5.2 7.9 10.1 12.5 14.6 4.3 4.2 9 8 14 11.3 5.5 3.7 11.3 6.8 17.3 9.4 6.3 2.6 12.8 4.6 19.5 5.9 6.4 1.3 13 1.9 19.6 1.9 6.4 0 12.7-0.5 19-1.7 6.9-1.3 13.7-3.3 20.1-5.9 5.6-2.3 11-5.1 16.1-8.4 5.5-3.5 10.7-7.6 15.4-12.1 4.4-4.2 8.3-8.7 11.9-13.5 3.6-5 6.8-10.2 9.5-15.8 2-4.2 3.8-8.5 5.2-13 1.8-5.5 3.1-11.2 3.9-16.9 1.6-11.1 1.4-22.5-0.7-33.5 -1.8-9.5-5-18.8-9.4-27.4 -5.3-10.4-12.4-19.8-20.9-27.8 -8.1-7.7-17.5-14-27.7-18.6 -7.9-3.6-16.3-6.2-24.8-7.7 -3.6-0.6-7.2-1-10.9-1.3 -1.8-0.1-3.7-0.2-5.6-0.2 -0.4 0-0.9 0-1.3 0Z" fill="#000"/></svg>
