<?xml version="1.0" encoding="UTF-8" standalone="no"?><!DOCTYPE svg PUBLIC "-//W3C//DTD SVG 1.1//EN" "http://www.w3.org/Graphics/SVG/1.1/DTD/svg11.dtd"><svg width="100%" height="100%" viewBox="0 0 500 500" version="1.1" xmlns="http://www.w3.org/2000/svg" xmlns:xlink="http://www.w3.org/1999/xlink" xml:space="preserve" style="fill-rule:evenodd;clip-rule:evenodd;stroke-linejoin:round;stroke-miterlimit:1.41421;"><rect id="Icons" x="0" y="0" width="500" height="500" style="fill:none;"/><g id="ic-archive-2b"><rect x="160.283" y="326.44" width="179.434" height="6" style="fill:#fff;fill-rule:nonzero;"/><rect x="160.283" y="294.535" width="179.434" height="6" style="fill:#fff;fill-rule:nonzero;"/><path d="M117.47,370.125l0,-123.125l6,0l0,117.125l252.442,0l0,-117.125l6,0l0,123.125c-88.148,0 -176.295,0 -264.442,0Z" style="fill:#fff;fill-rule:nonzero;"/><path d="M252.308,194.948l-6,0l0,-101.484l6,0c0,33.828 0,67.656 0,101.484Z" style="fill:#fff;fill-rule:nonzero;"/><path d="M252.059,216.763l53.919,-58.195c1.467,1.36 2.934,2.719 4.401,4.078l-54.075,58.363l0.08,0.079l-2.081,2.081l-2,2.159l-0.082,-0.076l-0.08,0.079l-2.081,-2.081l-2.158,-2l0.076,-0.082l-58.36,-58.36l4.243,-4.243l58.198,58.198Z" style="fill:#fff;"/></g></svg>